<?xml version="1.0" standalone="no"?>
<!DOCTYPE svg PUBLIC "-//W3C//DTD SVG 20010904//EN"
 "http://www.w3.org/TR/2001/REC-SVG-20010904/DTD/svg10.dtd">
<svg version="1.0" xmlns="http://www.w3.org/2000/svg"
 width="504.000000pt" height="534.000000pt" viewBox="0 0 504.000000 534.000000"
 preserveAspectRatio="xMidYMid meet">
<metadata>
Created by potrace 1.15, written by Peter Selinger 2001-2017
</metadata>
<g transform="translate(0.000000,534.000000) scale(0.100000,-0.100000)"
fill="#000000" stroke="none">
<path d="M3010 5290 c0 -39 -1 -40 -35 -40 -33 0 -35 -2 -35 -35 l0 -35 -75 0
-75 0 0 -40 0 -40 -40 0 c-39 0 -40 -1 -40 -35 0 -33 -2 -35 -35 -35 -34 0
-35 -1 -35 -40 l0 -40 -40 0 c-39 0 -40 -1 -40 -35 0 -33 -2 -35 -35 -35 -34
0 -35 -1 -35 -40 l0 -40 -40 0 c-39 0 -40 -1 -40 -35 0 -34 1 -35 40 -35 39 0
40 1 40 35 0 33 2 35 35 35 34 0 35 1 35 40 l0 40 40 0 c39 0 40 1 40 35 0 33
2 35 35 35 34 0 35 1 35 40 l0 40 40 0 c39 0 40 1 40 35 l0 35 75 0 75 0 0 40
c0 39 1 40 35 40 33 0 35 2 35 35 l0 35 75 0 75 0 0 -35 c0 -33 -2 -35 -35
-35 l-35 0 0 -75 0 -75 -40 0 -40 0 0 -75 0 -75 40 0 40 0 0 -40 0 -40 -115 0
-115 0 0 -35 c0 -33 -2 -35 -35 -35 -34 0 -35 -1 -35 -40 0 -39 1 -40 35 -40
34 0 35 1 35 40 l0 40 115 0 115 0 0 35 0 35 110 0 110 0 0 -35 c0 -33 -2 -35
-35 -35 -34 0 -35 -1 -35 -40 l0 -40 -40 0 c-39 0 -40 -1 -40 -35 0 -33 -2
-35 -35 -35 -34 0 -35 -1 -35 -40 l0 -40 -75 0 -75 0 0 -35 c0 -34 -1 -35 -40
-35 l-40 0 0 -40 c0 -39 -1 -40 -35 -40 -33 0 -35 -2 -35 -35 0 -34 -1 -35
-40 -35 l-40 0 0 -40 c0 -39 -1 -40 -35 -40 -33 0 -35 -2 -35 -35 l0 -35 75 0
75 0 0 75 0 75 35 0 c33 0 35 2 35 35 0 34 1 35 40 35 l40 0 0 40 0 40 75 0
75 0 0 35 c0 33 2 35 35 35 34 0 35 1 35 40 l0 40 40 0 c39 0 40 1 40 35 0 33
2 35 35 35 34 0 35 1 35 40 l0 40 40 0 c39 0 40 1 40 35 0 33 2 35 35 35 34 0
35 1 35 40 l0 40 115 0 115 0 0 -40 0 -40 -40 0 -40 0 0 -75 0 -75 -35 0 -35
0 0 -75 0 -75 -75 0 -75 0 0 40 0 40 -40 0 -40 0 0 -40 0 -40 40 0 c39 0 40
-1 40 -35 0 -33 2 -35 35 -35 34 0 35 -1 35 -40 l0 -40 150 0 150 0 0 40 0 40
150 0 150 0 0 -40 c0 -39 -1 -40 -35 -40 -33 0 -35 -2 -35 -35 0 -34 -1 -35
-40 -35 l-40 0 0 -40 c0 -39 -1 -40 -35 -40 -33 0 -35 -2 -35 -35 0 -34 -1
-35 -40 -35 l-40 0 0 -40 c0 -39 -1 -40 -35 -40 l-35 0 0 75 0 75 -40 0 -40 0
0 40 c0 39 -1 40 -35 40 -34 0 -35 -1 -35 -40 0 -39 1 -40 35 -40 l35 0 0 -75
0 -75 40 0 40 0 0 -110 0 -110 35 0 c33 0 35 2 35 35 l0 35 115 0 115 0 0 -35
c0 -34 -1 -35 -40 -35 l-40 0 0 -40 0 -40 -75 0 -75 0 0 -110 0 -110 40 0 40
0 0 -190 0 -190 -40 0 -40 0 0 -75 0 -75 -35 0 c-33 0 -35 -2 -35 -35 l0 -35
110 0 110 0 0 35 c0 34 1 35 40 35 39 0 40 -1 40 -35 0 -33 2 -35 35 -35 l35
0 0 -75 0 -75 -75 0 -75 0 0 -40 c0 -39 -1 -40 -35 -40 -33 0 -35 -2 -35 -35
l0 -35 110 0 110 0 0 -115 0 -115 40 0 40 0 0 -75 0 -75 35 0 c33 0 35 -2 35
-35 l0 -35 -75 0 -75 0 0 -75 0 -75 -35 0 -35 0 0 -75 0 -75 -40 0 -40 0 0
185 0 185 -35 0 -35 0 0 115 0 115 -40 0 -40 0 0 75 0 75 -35 0 -35 0 0 75 0
75 -40 0 -40 0 0 75 0 75 -35 0 c-33 0 -35 2 -35 35 0 34 -1 35 -40 35 -39 0
-40 -1 -40 -35 0 -33 -2 -35 -35 -35 l-35 0 0 -75 0 -75 -40 0 -40 0 0 -75 0
-75 -35 0 -35 0 0 -75 0 -75 -40 0 -40 0 0 -40 c0 -39 -1 -40 -35 -40 l-35 0
0 -75 0 -75 -40 0 -40 0 0 -75 0 -75 -35 0 c-33 0 -35 -2 -35 -35 0 -34 -1
-35 -40 -35 l-40 0 0 -40 c0 -39 -1 -40 -35 -40 -33 0 -35 -2 -35 -35 0 -34
-1 -35 -40 -35 l-40 0 0 -40 c0 -39 -1 -40 -35 -40 l-35 0 0 115 0 115 -40 0
-40 0 0 150 0 150 -35 0 c-34 0 -35 -1 -35 -40 l0 -40 -40 0 c-39 0 -40 -1
-40 -35 0 -33 -2 -35 -35 -35 -34 0 -35 -1 -35 -40 l0 -40 -40 0 -40 0 0 75 0
75 -35 0 -35 0 0 150 0 150 35 0 c34 0 35 1 35 40 l0 40 40 0 c39 0 40 1 40
35 0 33 2 35 35 35 l35 0 0 75 0 75 40 0 40 0 0 115 0 115 -40 0 -40 0 0 75 0
75 -35 0 c-33 0 -35 2 -35 35 l0 35 -75 0 -75 0 0 40 0 40 -75 0 -75 0 0 -40
0 -40 75 0 75 0 0 -35 c0 -33 2 -35 35 -35 34 0 35 -1 35 -40 l0 -40 40 0 c39
0 40 -1 40 -35 0 -33 2 -35 35 -35 34 0 35 -1 35 -40 l0 -40 -75 0 -75 0 0 40
c0 39 -1 40 -35 40 -34 0 -35 -1 -35 -40 l0 -40 -40 0 -40 0 0 40 0 40 -75 0
-75 0 0 -40 c0 -39 -1 -40 -35 -40 l-35 0 0 -75 0 -75 35 0 c33 0 35 -2 35
-35 0 -34 1 -35 40 -35 l40 0 0 -75 0 -75 75 0 75 0 0 -40 0 -40 -115 0 -115
0 0 75 0 75 -75 0 -75 0 0 40 c0 39 -1 40 -35 40 l-35 0 0 75 0 75 -40 0 -40
0 0 150 0 150 40 0 c39 0 40 1 40 35 0 33 2 35 35 35 34 0 35 1 35 40 l0 40
75 0 75 0 0 35 0 35 -75 0 -75 0 0 -35 0 -35 -75 0 -75 0 0 75 0 75 -35 0
c-33 0 -35 2 -35 35 l0 35 110 0 110 0 0 -35 0 -35 115 0 115 0 0 -40 0 -40
75 0 75 0 0 40 0 40 75 0 75 0 0 35 c0 33 2 35 35 35 34 0 35 1 35 40 0 39 -1
40 -35 40 -34 0 -35 -1 -35 -40 l0 -40 -75 0 -75 0 0 40 0 40 -40 0 c-39 0
-40 1 -40 35 0 33 -2 35 -35 35 l-35 0 0 75 0 75 -40 0 -40 0 0 40 c0 39 -1
40 -35 40 -33 0 -35 2 -35 35 l0 35 75 0 75 0 0 -35 0 -35 75 0 75 0 0 -40 c0
-39 1 -40 35 -40 33 0 35 -2 35 -35 0 -34 1 -35 40 -35 l40 0 0 -40 0 -40 75
0 75 0 0 -35 c0 -33 2 -35 35 -35 34 0 35 -1 35 -40 0 -39 -1 -40 -35 -40
l-35 0 0 -75 0 -75 35 0 c33 0 35 -2 35 -35 0 -34 1 -35 40 -35 l40 0 0 -40 0
-40 110 0 110 0 0 40 0 40 75 0 75 0 0 35 0 35 75 0 75 0 0 40 0 40 40 0 c39
0 40 1 40 35 0 33 2 35 35 35 34 0 35 1 35 40 0 39 -1 40 -35 40 -34 0 -35 -1
-35 -40 l0 -40 -40 0 c-39 0 -40 -1 -40 -35 l0 -35 -75 0 -75 0 0 -40 0 -40
-75 0 -75 0 0 -35 0 -35 -110 0 -110 0 0 35 0 35 75 0 75 0 0 40 0 40 75 0 75
0 0 35 c0 33 2 35 35 35 34 0 35 1 35 40 l0 40 40 0 40 0 0 75 0 75 35 0 c33
0 35 2 35 35 0 33 -2 35 -35 35 -34 0 -35 1 -35 40 l0 40 -40 0 c-39 0 -40 1
-40 35 l0 35 -150 0 -150 0 0 -35 c0 -33 -2 -35 -35 -35 -34 0 -35 -1 -35 -40
l0 -40 -75 0 -75 0 0 -35 0 -35 -75 0 -75 0 0 35 c0 34 -1 35 -40 35 l-40 0 0
115 0 115 -35 0 -35 0 0 75 0 75 -40 0 -40 0 0 110 0 110 -35 0 -35 0 0 150 0
150 35 0 c33 0 35 -2 35 -35 0 -34 1 -35 40 -35 l40 0 0 -40 c0 -39 1 -40 35
-40 33 0 35 -2 35 -35 l0 -35 75 0 75 0 0 35 0 35 -75 0 -75 0 0 40 c0 39 -1
40 -35 40 -33 0 -35 2 -35 35 0 34 -1 35 -40 35 l-40 0 0 40 c0 39 -1 40 -35
40 -34 0 -35 -1 -35 -40 l0 -40 -40 0 -40 0 0 -150 0 -150 40 0 40 0 0 -110 0
-110 35 0 35 0 0 -75 0 -75 40 0 40 0 0 -40 0 -40 -75 0 -75 0 0 40 0 40 -115
0 -115 0 0 -75 0 -75 40 0 40 0 0 -40 c0 -39 1 -40 35 -40 l35 0 0 -75 0 -75
40 0 c39 0 40 -1 40 -35 0 -33 2 -35 35 -35 l35 0 0 -75 0 -75 -35 0 c-33 0
-35 2 -35 35 l0 35 -115 0 -115 0 0 40 0 40 -150 0 -150 0 0 -75 0 -75 40 0
40 0 0 -75 0 -75 35 0 35 0 0 -75 0 -75 -35 0 -35 0 0 -115 0 -115 -115 0
-115 0 0 -75 0 -75 40 0 c39 0 40 -1 40 -35 0 -33 2 -35 35 -35 34 0 35 -1 35
-40 l0 -40 40 0 c39 0 40 -1 40 -35 0 -33 2 -35 35 -35 34 0 35 -1 35 -40 l0
-40 40 0 c39 0 40 -1 40 -35 0 -33 2 -35 35 -35 l35 0 0 -115 0 -115 -35 0
-35 0 0 -110 0 -110 -40 0 -40 0 0 -75 0 -75 -185 0 -185 0 0 35 0 35 -75 0
-75 0 0 40 0 40 -40 0 -40 0 0 75 0 75 -35 0 -35 0 0 185 0 185 -75 0 -75 0 0
-35 c0 -34 -1 -35 -40 -35 l-40 0 0 -40 c0 -39 -1 -40 -35 -40 -34 0 -35 1
-35 40 l0 40 -40 0 c-39 0 -40 1 -40 35 0 33 -2 35 -35 35 -34 0 -35 1 -35 40
l0 40 -40 0 -40 0 0 75 0 75 -35 0 -35 0 0 150 0 150 -75 0 -75 0 0 -40 0 -40
-40 0 -40 0 0 -75 0 -75 -35 0 -35 0 0 -260 0 -260 35 0 35 0 0 -115 0 -115
-35 0 c-33 0 -35 -2 -35 -35 0 -34 -1 -35 -40 -35 l-40 0 0 -75 0 -75 115 0
115 0 0 -40 0 -40 75 0 75 0 0 -75 0 -75 35 0 c33 0 35 -2 35 -35 0 -34 1 -35
40 -35 l40 0 0 -75 0 -75 35 0 c34 0 35 -1 35 -40 l0 -40 40 0 c39 0 40 -1 40
-35 0 -33 2 -35 35 -35 34 0 35 -1 35 -40 l0 -40 40 0 c39 0 40 -1 40 -35 0
-33 2 -35 35 -35 34 0 35 -1 35 -40 l0 -40 40 0 c39 0 40 -1 40 -35 0 -33 2
-35 35 -35 34 0 35 -1 35 -40 l0 -40 75 0 75 0 0 -35 c0 -34 1 -35 40 -35 l40
0 0 -40 c0 -39 1 -40 35 -40 l35 0 0 -75 0 -75 -35 0 -35 0 0 -75 0 -75 -40 0
c-39 0 -40 -1 -40 -35 0 -33 -2 -35 -35 -35 -34 0 -35 -1 -35 -40 l0 -40 -40
0 -40 0 0 -75 0 -75 190 0 190 0 0 -35 c0 -33 2 -35 35 -35 34 0 35 -1 35 -40
l0 -40 75 0 75 0 0 40 0 40 40 0 c39 0 40 1 40 35 l0 35 75 0 75 0 0 -35 0
-35 150 0 150 0 0 75 0 75 -40 0 c-39 0 -40 1 -40 35 0 33 -2 35 -35 35 l-35
0 0 75 0 75 35 0 c34 0 35 1 35 40 l0 40 75 0 75 0 0 35 0 35 375 0 375 0 0
40 0 40 115 0 115 0 0 35 0 35 110 0 110 0 0 -110 0 -110 40 0 40 0 0 -40 0
-40 150 0 150 0 0 -35 0 -35 150 0 150 0 0 -40 0 -40 185 0 185 0 0 40 0 40
115 0 115 0 0 75 0 75 -40 0 c-39 0 -40 1 -40 35 0 33 -2 35 -35 35 -34 0 -35
1 -35 40 l0 40 -75 0 -75 0 0 35 c0 34 -1 35 -40 35 l-40 0 0 115 0 115 40 0
40 0 0 150 0 150 -40 0 -40 0 0 110 0 110 -35 0 c-34 0 -35 1 -35 40 l0 40
-40 0 c-39 0 -40 1 -40 35 0 33 -2 35 -35 35 -34 0 -35 1 -35 40 l0 40 -40 0
-40 0 0 150 0 150 40 0 c39 0 40 1 40 35 0 33 2 35 35 35 33 0 35 -2 35 -35
l0 -35 75 0 75 0 0 -40 0 -40 75 0 75 0 0 -35 0 -35 115 0 115 0 0 35 0 35 75
0 75 0 0 -35 0 -35 75 0 75 0 0 110 0 110 -40 0 -40 0 0 40 c0 39 -1 40 -35
40 -33 0 -35 2 -35 35 0 34 -1 35 -40 35 l-40 0 0 40 0 40 40 0 40 0 0 75 0
75 -150 0 -150 0 0 35 c0 34 -1 35 -40 35 l-40 0 0 40 c0 39 -1 40 -35 40 -33
0 -35 2 -35 35 0 34 -1 35 -40 35 l-40 0 0 40 0 40 -75 0 -75 0 0 35 c0 33 -2
35 -35 35 -34 0 -35 1 -35 40 l0 40 -40 0 -40 0 0 75 0 75 -35 0 c-33 0 -35 2
-35 35 0 34 -1 35 -40 35 l-40 0 0 75 0 75 40 0 40 0 0 40 c0 39 1 40 35 40
l35 0 0 75 0 75 -110 0 -110 0 0 75 0 75 35 0 c33 0 35 2 35 35 0 34 1 35 40
35 l40 0 0 40 c0 39 1 40 35 40 l35 0 0 75 0 75 -150 0 -150 0 0 35 c0 34 1
35 40 35 l40 0 0 40 c0 39 1 40 35 40 33 0 35 2 35 35 0 34 1 35 40 35 l40 0
0 40 c0 39 1 40 35 40 33 0 35 2 35 35 0 34 1 35 40 35 l40 0 0 40 0 40 -40 0
c-39 0 -40 1 -40 35 l0 35 -150 0 -150 0 0 -35 0 -35 -110 0 -110 0 0 35 c0
33 2 35 35 35 l35 0 0 75 0 75 40 0 40 0 0 75 0 75 35 0 35 0 0 75 0 75 -150
0 -150 0 0 -35 0 -35 -185 0 -185 0 0 75 0 75 35 0 35 0 0 75 0 75 40 0 40 0
0 75 0 75 -115 0 -115 0 0 -40z m-2700 -2400 l0 -110 40 0 40 0 0 -75 0 -75
35 0 c34 0 35 -1 35 -40 l0 -40 40 0 c39 0 40 -1 40 -35 0 -33 2 -35 35 -35
34 0 35 -1 35 -40 l0 -40 40 0 c39 0 40 -1 40 -35 0 -33 2 -35 35 -35 33 0 35
2 35 35 0 34 1 35 40 35 l40 0 0 40 c0 39 1 40 35 40 l35 0 0 -150 0 -150 40
0 40 0 0 -75 0 -75 35 0 c34 0 35 -1 35 -40 l0 -40 40 0 c39 0 40 -1 40 -35
l0 -35 75 0 75 0 0 -40 0 -40 110 0 110 0 0 -35 c0 -34 1 -35 40 -35 39 0 40
1 40 35 0 33 2 35 35 35 34 0 35 1 35 40 l0 40 75 0 75 0 0 35 c0 34 1 35 40
35 l40 0 0 40 0 40 -40 0 -40 0 0 110 0 110 40 0 40 0 0 115 0 115 -40 0 c-39
0 -40 1 -40 35 0 33 -2 35 -35 35 -34 0 -35 1 -35 40 l0 40 -40 0 c-39 0 -40
1 -40 35 0 33 -2 35 -35 35 -34 0 -35 1 -35 40 l0 40 -40 0 c-39 0 -40 1 -40
35 0 33 -2 35 -35 35 -34 0 -35 1 -35 40 l0 40 110 0 110 0 0 -75 0 -75 40 0
40 0 0 -40 c0 -39 1 -40 35 -40 33 0 35 -2 35 -35 0 -34 1 -35 40 -35 l40 0 0
-75 0 -75 110 0 110 0 0 -115 0 -115 40 0 40 0 0 -110 0 -110 75 0 75 0 0 35
c0 33 2 35 35 35 34 0 35 1 35 40 l0 40 40 0 40 0 0 -75 0 -75 35 0 35 0 0
-150 0 -150 75 0 75 0 0 35 c0 34 1 35 40 35 l40 0 0 40 c0 39 1 40 35 40 33
0 35 2 35 35 0 34 1 35 40 35 l40 0 0 40 0 40 75 0 75 0 0 35 0 35 75 0 75 0
0 40 0 40 -40 0 -40 0 0 110 0 110 75 0 75 0 0 75 0 75 40 0 40 0 0 40 c0 39
1 40 35 40 34 0 35 -1 35 -40 l0 -40 40 0 c39 0 40 -1 40 -35 0 -33 2 -35 35
-35 34 0 35 -1 35 -40 l0 -40 -150 0 -150 0 0 -35 0 -35 150 0 150 0 0 -75 0
-75 40 0 40 0 0 -40 0 -40 -225 0 -225 0 0 -35 0 -35 185 0 185 0 0 -75 0 -75
-35 0 c-34 0 -35 -1 -35 -40 l0 -40 -75 0 -75 0 0 40 0 40 -75 0 -75 0 0 35
c0 34 -1 35 -40 35 l-40 0 0 40 c0 39 -1 40 -35 40 l-35 0 0 -75 0 -75 35 0
c34 0 35 -1 35 -40 l0 -40 40 0 40 0 0 -75 0 -75 35 0 35 0 0 -75 0 -75 40 0
40 0 0 -75 0 -75 75 0 75 0 0 40 c0 39 1 40 35 40 33 0 35 2 35 35 0 34 1 35
40 35 l40 0 0 40 c0 39 1 40 35 40 l35 0 0 75 0 75 40 0 c39 0 40 1 40 35 l0
35 75 0 75 0 0 -75 0 -75 75 0 75 0 0 -110 0 -110 35 0 c33 0 35 2 35 35 0 34
1 35 40 35 l40 0 0 -110 0 -110 -40 0 -40 0 0 -75 0 -75 -35 0 c-34 0 -35 -1
-35 -40 l0 -40 75 0 75 0 0 40 c0 39 1 40 35 40 l35 0 0 -75 0 -75 -110 0
-110 0 0 -40 0 -40 75 0 75 0 0 -75 0 -75 35 0 c33 0 35 -2 35 -35 0 -34 1
-35 40 -35 l40 0 0 -40 0 -40 75 0 75 0 0 -35 c0 -33 2 -35 35 -35 34 0 35 -1
35 -40 l0 -40 -110 0 -110 0 0 -35 0 -35 -115 0 -115 0 0 75 0 75 -35 0 c-34
0 -35 -1 -35 -40 l0 -40 -150 0 -150 0 0 40 0 40 -150 0 -150 0 0 75 0 75 35
0 c33 0 35 2 35 35 0 33 -2 35 -35 35 l-35 0 0 75 0 75 -75 0 -75 0 0 -35 0
-35 -75 0 -75 0 0 -40 0 -40 -115 0 -115 0 0 -35 0 -35 -260 0 -260 0 0 35 c0
34 -1 35 -40 35 -39 0 -40 -1 -40 -35 0 -33 -2 -35 -35 -35 l-35 0 0 150 0
150 -40 0 -40 0 0 -150 0 -150 -35 0 c-34 0 -35 -1 -35 -40 l0 -40 -40 0 c-39
0 -40 -1 -40 -35 l0 -35 -150 0 -150 0 0 -40 0 -40 75 0 75 0 0 -75 0 -75 40
0 c39 0 40 -1 40 -35 0 -33 2 -35 35 -35 34 0 35 -1 35 -40 l0 -40 -110 0
-110 0 0 40 0 40 -40 0 c-39 0 -40 1 -40 35 0 33 -2 35 -35 35 -33 0 -35 -2
-35 -35 0 -34 -1 -35 -40 -35 l-40 0 0 -75 0 -75 -75 0 -75 0 0 35 c0 33 -2
35 -35 35 -34 0 -35 1 -35 40 l0 40 -40 0 -40 0 0 75 0 75 -35 0 -35 0 0 -75
0 -75 -75 0 -75 0 0 35 c0 33 2 35 35 35 34 0 35 1 35 40 l0 40 40 0 c39 0 40
1 40 35 0 33 2 35 35 35 l35 0 0 75 0 75 40 0 40 0 0 75 0 75 -40 0 -40 0 0
75 0 75 -35 0 -35 0 0 150 0 150 -40 0 -40 0 0 -110 0 -110 -35 0 c-33 0 -35
2 -35 35 l0 35 -75 0 -75 0 0 40 0 40 -40 0 c-39 0 -40 1 -40 35 0 33 -2 35
-35 35 -34 0 -35 1 -35 40 l0 40 -40 0 c-39 0 -40 1 -40 35 0 33 -2 35 -35 35
-34 0 -35 1 -35 40 l0 40 -40 0 -40 0 0 75 0 75 -35 0 c-33 0 -35 2 -35 35 0
34 -1 35 -40 35 l-40 0 0 75 0 75 -35 0 c-34 0 -35 1 -35 40 l0 40 -75 0 -75
0 0 35 0 35 -75 0 -75 0 0 40 0 40 75 0 75 0 0 35 0 35 110 0 110 0 0 75 0 75
-35 0 c-33 0 -35 -2 -35 -35 l0 -35 -75 0 -75 0 0 110 0 110 -40 0 -40 0 0
115 0 115 40 0 c39 0 40 1 40 35 0 34 -1 35 -40 35 l-40 0 0 75 0 75 40 0 40
0 0 75 0 75 35 0 35 0 0 -110z m1800 75 c0 -34 1 -35 40 -35 39 0 40 1 40 35
0 33 2 35 35 35 33 0 35 -2 35 -35 l0 -35 75 0 75 0 0 -40 c0 -39 -1 -40 -35
-40 l-35 0 0 -75 0 -75 -40 0 c-39 0 -40 -1 -40 -35 0 -33 -2 -35 -35 -35 -33
0 -35 2 -35 35 0 34 -1 35 -40 35 l-40 0 0 40 0 40 40 0 c39 0 40 1 40 35 l0
35 -115 0 -115 0 0 75 0 75 75 0 75 0 0 -35z m2100 -225 l0 -40 75 0 75 0 0
-35 c0 -34 1 -35 40 -35 l40 0 0 -40 0 -40 -40 0 c-39 0 -40 -1 -40 -35 l0
-35 115 0 115 0 0 -75 0 -75 35 0 c33 0 35 2 35 35 l0 35 75 0 75 0 0 -35 c0
-33 -2 -35 -35 -35 -34 0 -35 -1 -35 -40 0 -39 1 -40 35 -40 l35 0 0 -75 0
-75 75 0 75 0 0 -75 0 -75 -35 0 c-34 0 -35 1 -35 40 l0 40 -75 0 -75 0 0 -40
0 -40 -115 0 -115 0 0 40 c0 39 -1 40 -35 40 -33 0 -35 2 -35 35 l0 35 -75 0
-75 0 0 40 c0 39 1 40 35 40 33 0 35 2 35 35 0 33 -2 35 -35 35 l-35 0 0 75 0
75 -75 0 -75 0 0 115 0 115 -40 0 -40 0 0 75 0 75 75 0 75 0 0 -40z"/>
<path d="M310 2515 c0 -33 -2 -35 -35 -35 -34 0 -35 -1 -35 -40 0 -39 1 -40
35 -40 l35 0 0 -75 0 -75 40 0 40 0 0 115 0 115 35 0 c34 0 35 -1 35 -40 l0
-40 40 0 c39 0 40 -1 40 -35 0 -33 2 -35 35 -35 34 0 35 -1 35 -40 l0 -40 40
0 c39 0 40 -1 40 -35 0 -33 2 -35 35 -35 33 0 35 2 35 35 0 33 -2 35 -35 35
-34 0 -35 1 -35 40 l0 40 -40 0 c-39 0 -40 1 -40 35 0 33 -2 35 -35 35 -34 0
-35 1 -35 40 l0 40 -40 0 c-39 0 -40 1 -40 35 l0 35 -75 0 -75 0 0 -35z"/>
<path d="M1890 1840 l0 -40 75 0 75 0 0 -35 0 -35 75 0 75 0 0 -40 c0 -39 1
-40 35 -40 33 0 35 -2 35 -35 0 -34 1 -35 40 -35 l40 0 0 -40 c0 -39 1 -40 35
-40 33 0 35 -2 35 -35 0 -34 1 -35 40 -35 l40 0 0 -40 c0 -39 1 -40 35 -40
l35 0 0 -225 0 -225 -35 0 -35 0 0 -75 0 -75 35 0 35 0 0 75 0 75 40 0 40 0 0
225 0 225 -40 0 -40 0 0 115 0 115 -35 0 -35 0 0 75 0 75 -40 0 c-39 0 -40 1
-40 35 0 33 -2 35 -35 35 -34 0 -35 1 -35 40 l0 40 -40 0 -40 0 0 -40 0 -40
40 0 c39 0 40 -1 40 -35 0 -33 2 -35 35 -35 l35 0 0 -75 0 -75 -35 0 c-33 0
-35 2 -35 35 0 34 -1 35 -40 35 l-40 0 0 40 c0 39 -1 40 -35 40 -33 0 -35 2
-35 35 l0 35 -75 0 -75 0 0 40 0 40 -75 0 -75 0 0 -40z"/>
<path d="M1440 1690 l0 -40 -40 0 -40 0 0 -75 0 -75 -35 0 -35 0 0 -150 0
-150 75 0 75 0 0 40 c0 39 1 40 35 40 33 0 35 2 35 35 0 34 1 35 40 35 l40 0
0 40 0 40 -40 0 c-39 0 -40 1 -40 35 0 33 -2 35 -35 35 l-35 0 0 75 0 75 35 0
c34 0 35 1 35 40 0 39 -1 40 -35 40 -34 0 -35 -1 -35 -40z"/>
<path d="M1740 1690 l0 -40 -40 0 -40 0 0 -75 0 -75 75 0 75 0 0 -35 0 -35
150 0 150 0 0 35 c0 33 -2 35 -35 35 -34 0 -35 1 -35 40 l0 40 -40 0 c-39 0
-40 1 -40 35 l0 35 -75 0 -75 0 0 40 c0 39 -1 40 -35 40 -34 0 -35 -1 -35 -40z"/>
<path d="M3910 1540 l0 -110 -35 0 -35 0 0 -75 0 -75 35 0 35 0 0 75 0 75 40
0 40 0 0 110 0 110 -40 0 -40 0 0 -110z"/>
<path d="M4060 1355 l0 -75 -35 0 c-34 0 -35 -1 -35 -40 l0 -40 -40 0 c-39 0
-40 -1 -40 -35 0 -34 1 -35 40 -35 39 0 40 1 40 35 0 33 2 35 35 35 34 0 35 1
35 40 l0 40 40 0 40 0 0 75 0 75 -40 0 -40 0 0 -75z"/>
<path d="M1740 1165 l0 -35 -75 0 -75 0 0 -40 0 -40 -75 0 -75 0 0 -35 c0 -34
-1 -35 -40 -35 l-40 0 0 -40 0 -40 40 0 40 0 0 40 0 40 75 0 75 0 0 35 0 35
75 0 75 0 0 40 0 40 150 0 150 0 0 -40 0 -40 75 0 75 0 0 -35 c0 -33 2 -35 35
-35 33 0 35 2 35 35 0 33 -2 35 -35 35 -34 0 -35 1 -35 40 l0 40 -75 0 -75 0
0 35 0 35 -150 0 -150 0 0 -35z"/>
<path d="M3760 1165 c0 -33 -2 -35 -35 -35 -34 0 -35 -1 -35 -40 l0 -40 -40 0
c-39 0 -40 -1 -40 -35 0 -33 -2 -35 -35 -35 -34 0 -35 -1 -35 -40 0 -39 1 -40
35 -40 34 0 35 1 35 40 l0 40 40 0 c39 0 40 1 40 35 0 33 2 35 35 35 34 0 35
1 35 40 l0 40 40 0 c39 0 40 1 40 35 0 34 -1 35 -40 35 -39 0 -40 -1 -40 -35z"/>
<path d="M3910 865 c0 -33 -2 -35 -35 -35 -34 0 -35 -1 -35 -40 l0 -40 -40 0
c-39 0 -40 -1 -40 -35 l0 -35 -75 0 -75 0 0 -40 0 -40 75 0 75 0 0 40 0 40 40
0 c39 0 40 1 40 35 l0 35 75 0 75 0 0 40 0 40 75 0 75 0 0 35 0 35 -115 0
-115 0 0 -35z"/>
<path d="M4210 715 l0 -35 -75 0 -75 0 0 -40 0 -40 75 0 75 0 0 40 0 40 40 0
c39 0 40 1 40 35 0 34 -1 35 -40 35 -39 0 -40 -1 -40 -35z"/>
<path d="M1510 340 c0 -39 -1 -40 -35 -40 -33 0 -35 -2 -35 -35 0 -33 2 -35
35 -35 33 0 35 2 35 35 l0 35 75 0 75 0 0 40 0 40 -75 0 -75 0 0 -40z"/>
<path d="M4360 2290 l0 -40 40 0 40 0 0 -75 0 -75 35 0 35 0 0 75 0 75 -35 0
c-34 0 -35 1 -35 40 l0 40 -40 0 -40 0 0 -40z"/>
<path d="M2640 3040 l0 -110 35 0 c34 0 35 -1 35 -40 l0 -40 190 0 190 0 0 40
0 40 -40 0 c-39 0 -40 1 -40 35 0 33 -2 35 -35 35 -34 0 -35 1 -35 40 l0 40
-75 0 -75 0 0 35 0 35 -75 0 -75 0 0 -110z"/>
<path d="M2640 2740 l0 -40 -40 0 -40 0 0 -75 0 -75 150 0 150 0 0 40 0 40 40
0 c39 0 40 1 40 35 0 34 -1 35 -40 35 l-40 0 0 40 0 40 -110 0 -110 0 0 -40z"/>
</g>
</svg>
